<svg width="20" height="20" viewBox="0 0 20 20" fill="none" xmlns="http://www.w3.org/2000/svg"><path fill-rule="evenodd" clip-rule="evenodd" d="M5.87382 1.60477C6.0921 2.00995 5.94058 2.51537 5.5354 2.73365C4.51249 3.28471 3.71923 4.20207 3.27356 5.31384C3.10231 5.74104 2.61718 5.94852 2.18999 5.77728C1.7628 5.60603 1.55531 5.1209 1.72656 4.69371C2.30757 3.24431 3.35578 2.01472 4.74494 1.26635C5.15012 1.04807 5.65554 1.19959 5.87382 1.60477ZM14.112 1.60508C14.3345 1.20224 14.8415 1.05611 15.2444 1.27868C16.6135 2.03511 17.7064 3.22554 18.2768 4.69379C18.4435 5.12279 18.2308 5.60568 17.8018 5.77235C17.3728 5.93902 16.89 5.72636 16.7233 5.29736C16.3044 4.21912 15.4913 3.31922 14.4384 2.73749C14.0355 2.51492 13.8894 2.00792 14.112 1.60508ZM10.0016 3.90406C7.25704 3.90406 4.94149 6.29452 4.94149 9.35877V9.36833L4.94143 9.36833L4.92004 11.2329C4.91896 12.4945 4.50827 13.5658 4.02828 14.3674H15.9819C15.5209 13.564 15.1271 12.4906 15.1271 11.2279V11.2179L15.1272 11.2179L15.1486 9.44656C15.1461 6.33348 12.7927 3.90406 10.0016 3.90406ZM3.27482 9.35385C3.27732 5.4747 6.23806 2.23739 10.0016 2.23739C13.8147 2.23739 16.8152 5.51891 16.8152 9.45139V9.46145H16.8152L16.7938 11.2328C16.795 12.3204 17.202 13.2346 17.6321 13.8646C17.9341 14.3069 17.9028 14.8293 17.757 15.1947C17.6142 15.5526 17.2359 16.0341 16.586 16.0341H3.41809C2.75753 16.0341 2.3803 15.5381 2.2413 15.1789C2.09895 14.811 2.07005 14.2798 2.38595 13.8361L3.0648 14.3195L2.38595 13.8361C2.8354 13.2049 3.25337 12.2993 3.25337 11.2279V11.2184L3.25343 11.2184L3.27482 9.35385ZM6.8251 18C6.8251 17.5398 7.19819 17.1667 7.65843 17.1667H12.3448C12.8051 17.1667 13.1782 17.5398 13.1782 18C13.1782 18.4602 12.8051 18.8333 12.3448 18.8333H7.65843C7.19819 18.8333 6.8251 18.4602 6.8251 18Z" fill="#0B0F1C"></path></svg>
