<svg width="20" height="20" viewBox="0 0 20 20" fill="none" xmlns="http://www.w3.org/2000/svg"><path d="M8.25 8C8.25 7.58579 7.91421 7.25 7.5 7.25C7.08579 7.25 6.75 7.58579 6.75 8H8.25ZM6.75 18C6.75 18.4142 7.08579 18.75 7.5 18.75C7.91421 18.75 8.25 18.4142 8.25 18H6.75ZM5 2.75H15V1.25H5V2.75ZM17.25 5V15H18.75V5H17.25ZM15 17.25H5V18.75H15V17.25ZM2.75 15V5H1.25V15H2.75ZM5 17.25C3.75736 17.25 2.75 16.2426 2.75 15H1.25C1.25 17.0711 2.92893 18.75 5 18.75V17.25ZM17.25 15C17.25 16.2426 16.2426 17.25 15 17.25V18.75C17.0711 18.75 18.75 17.0711 18.75 15H17.25ZM15 2.75C16.2426 2.75 17.25 3.75736 17.25 5H18.75C18.75 2.92893 17.0711 1.25 15 1.25V2.75ZM5 1.25C2.92893 1.25 1.25 2.92893 1.25 5H2.75C2.75 3.75736 3.75736 2.75 5 2.75V1.25ZM6.75 8V18H8.25V8H6.75ZM2.5 8.25H17.5V6.75H2.5V8.25Z" fill="#29B473"></path></svg>
