<svg width="20" height="20" viewBox="0 0 20 20" fill="none" xmlns="http://www.w3.org/2000/svg"><path d="M12.899 3.8783C12.6051 2.55574 11.4321 1.61475 10.0772 1.61475H9.26329C7.43993 1.61475 5.85923 2.8765 5.45514 4.65453L3.021 15.3647M3.021 15.3647V18.4897H15.521V15.3647M3.021 15.3647H15.521M15.521 15.3647L15.0817 13.388M9.271 7.55225V15.3647L16.0666 7.17611M18.646 5.98975C18.646 6.85269 17.9464 7.55225 17.0835 7.55225C16.2206 7.55225 15.521 6.85269 15.521 5.98975C15.521 5.1268 16.2206 4.42725 17.0835 4.42725C17.9464 4.42725 18.646 5.1268 18.646 5.98975Z" stroke="#29B473" stroke-width="1.5" stroke-miterlimit="10" stroke-linecap="round" stroke-linejoin="round"></path></svg>
