<svg width="20" height="20" viewBox="0 0 20 20" fill="none" xmlns="http://www.w3.org/2000/svg"><path d="M16.4434 2.39701C16.1505 2.10411 15.6756 2.10411 15.3827 2.39701C15.0898 2.6899 15.0898 3.16477 15.3827 3.45767L16.4434 2.39701ZM17.4697 5.54462C17.7626 5.83752 18.2374 5.83752 18.5303 5.54462C18.8232 5.25173 18.8232 4.77686 18.5303 4.48396L17.4697 5.54462ZM10.4022 8.07227C10.4022 7.65805 10.0664 7.32227 9.65217 7.32227C9.23796 7.32227 8.90217 7.65805 8.90217 8.07227H10.4022ZM8.90217 11.0868C8.90217 11.501 9.23796 11.8368 9.65217 11.8368C10.0664 11.8368 10.4022 11.501 10.4022 11.0868H8.90217ZM7.33333 0.322266C6.91912 0.322266 6.58333 0.658052 6.58333 1.07227C6.58333 1.48648 6.91912 1.82227 7.33333 1.82227V0.322266ZM11.7391 1.82227C12.1533 1.82227 12.4891 1.48648 12.4891 1.07227C12.4891 0.658052 12.1533 0.322266 11.7391 0.322266V1.82227ZM14.6871 5.17962C14.3942 5.47251 14.3942 5.94738 14.6871 6.24028C14.98 6.53317 15.4548 6.53317 15.7477 6.24028L14.6871 5.17962ZM16.9565 3.97082L17.4868 3.44049L16.9565 3.97082ZM8.90217 8.07227V11.0868H10.4022V8.07227H8.90217ZM7.33333 1.82227H11.7391V0.322266H7.33333V1.82227ZM15.7477 6.24028L17.4868 4.50115L16.4262 3.44049L14.6871 5.17962L15.7477 6.24028ZM16.5543 11.2752C16.5543 15.0871 13.4641 18.1773 9.65217 18.1773V19.6773C14.2926 19.6773 18.0543 15.9156 18.0543 11.2752H16.5543ZM9.65217 18.1773C5.84021 18.1773 2.75 15.0871 2.75 11.2752H1.25C1.25 15.9156 5.01178 19.6773 9.65217 19.6773V18.1773ZM2.75 11.2752C2.75 7.4632 5.84021 4.37299 9.65217 4.37299V2.87299C5.01178 2.87299 1.25 6.63477 1.25 11.2752H2.75ZM9.65217 4.37299C13.4641 4.37299 16.5543 7.4632 16.5543 11.2752H18.0543C18.0543 6.63477 14.2926 2.87299 9.65217 2.87299V4.37299ZM10.0616 12.0143C10.0616 12.2404 9.87829 12.4237 9.65217 12.4237V13.9237C10.7067 13.9237 11.5616 13.0688 11.5616 12.0143H10.0616ZM9.65217 12.4237C9.42606 12.4237 9.24275 12.2404 9.24275 12.0143H7.74275C7.74275 13.0688 8.59763 13.9237 9.65217 13.9237V12.4237ZM9.24275 12.0143C9.24275 11.7882 9.42606 11.6049 9.65217 11.6049V10.1049C8.59763 10.1049 7.74275 10.9598 7.74275 12.0143H9.24275ZM9.65217 11.6049C9.87829 11.6049 10.0616 11.7882 10.0616 12.0143H11.5616C11.5616 10.9598 10.7067 10.1049 9.65217 10.1049V11.6049ZM15.3827 3.45767L16.4262 4.50115L17.4868 3.44049L16.4434 2.39701L15.3827 3.45767ZM16.4262 4.50115L17.4697 5.54462L18.5303 4.48396L17.4868 3.44049L16.4262 4.50115Z" fill="#29B473"></path></svg>
