<svg width="20" height="20" viewBox="0 0 20 20" fill="#0B0F1C" xmlns="http://www.w3.org/2000/svg"><path fill-rule="evenodd" clip-rule="evenodd" d="M9.16675 16.0002C9.16675 16.4604 9.53984 16.8335 10.0001 16.8335L14.6667 16.8335C16.9679 16.8335 18.8334 14.968 18.8334 12.6668L18.8334 11.1797C18.8334 8.87855 16.9679 7.01307 14.6667 7.01307L3.99296 7.01307L6.38817 4.58544C6.71141 4.25783 6.70787 3.7302 6.38025 3.40696C6.05264 3.08372 5.52501 3.08726 5.20177 3.41488L1.40688 7.26112C1.08671 7.58563 1.08671 8.10718 1.40688 8.43169L5.20177 12.2779C5.52501 12.6055 6.05264 12.6091 6.38025 12.2859C6.70787 11.9626 6.71141 11.435 6.38817 11.1074L3.99296 8.67974L14.6667 8.67974C16.0475 8.67974 17.1667 9.79903 17.1667 11.1797L17.1667 12.6668C17.1667 14.0475 16.0475 15.1668 14.6667 15.1668L10.0001 15.1668C9.53984 15.1668 9.16675 15.5399 9.16675 16.0002Z"></path></svg>
